# AST/ASF file generated using VICON BodyLanguage
# -----------------------------------------------
:version 1.10
:name VICON
:units
  mass 1.0
  length 0.45
  angle deg
:documentation
   .ast/.asf automatically generated from VICON data using
   VICON BodyBuilder and BodyLanguage model FoxedUp or BRILLIANT.MOD
:root
   order TX TY TZ RX RY RZ
   axis XYZ
   position 0 0 0  
   orientation 0 0 0 
:bonedata
  begin
     id 1 
     name lhipjoint
     direction 0.521452 -0.77106 0.36545 
     length 2.0933 
     axis 0 0 0  XYZ
  end
  begin
     id 2 
     name lfemur
     direction 0.34202 -0.939693 0  
     length 6.83441  
     axis 0 0 20  XYZ
    dof rx ry rz
    limits (-160.0 20.0)
           (-70.0 70.0)
           (-60.0 70.0)
  end
  begin
     id 3 
     name ltibia
     direction 0.34202 -0.939693 0   
     length 7.28749   
     axis 0 0 20   XYZ
    dof rx
    limits (-10.0 170.0)
  end
  begin
     id 4 
     name lfoot
     direction 0.100608 -0.276418 0.955757   
     length 1.52195   
     axis -90 7.62852e-016 20   XYZ
    dof rx rz
    limits (-45.0 90.0)
           (-70.0 20.0)
  end
  begin
     id 5 
     name ltoes
     direction 1.53558e-011 -4.21907e-011 1   
     length 0.770459   
     axis -90 7.62852e-016 20   XYZ
    dof rx
    limits (-90.0 20.0)
  end
  begin
     id 6 
     name rhipjoint
     direction -0.488071 -0.788702 0.373812   
     length 2.04648  
     axis 0 0 0  XYZ 
  end
  begin
     id 7 
     name rfemur
     direction -0.34202 -0.939693 0   
     length 6.92583   
     axis 0 0 -20   XYZ
    dof rx ry rz
    limits (-160.0 20.0)
           (-70.0 70.0)
           (-70.0 60.0)
  end
  begin
     id 8 
     name rtibia
     direction -0.34202 -0.939693 0   
     length 7.41043   
     axis 0 0 -20   XYZ
    dof rx
    limits (-10.0 170.0)
 end
 begin
     id 9 
     name rfoot
     direction -0.0784433 -0.215521 0.973343   
     length 1.67708  
     axis -90 -7.62852e-016 -20   XYZ
    dof rx rz
    limits (-45.0 90.0)
           (-20.0 70.0)
  end
  begin
     id 10 
     name rtoes
     direction -1.53551e-011 -4.21842e-011 1   
     length 0.849787   
     axis -90 -7.62852e-016 -20   XYZ
    dof rx
    limits (-90.0 20.0)
  end
  begin
     id 11 
     name lowerback
     direction -0.0122332 0.997575 -0.0685192   
     length 1.98724   
     axis 0 0 0   XYZ
    dof rx ry rz
    limits (-20.0 45.0)
           (-30.0 30.0)
           (-30.0 30.0)
  end
  begin
     id 12 
     name upperback
     direction 0.0182347 0.999724 -0.0148421   
     length 1.99029   
     axis 0 0 0   XYZ
    dof rx ry rz
    limits (-20.0 45.0)
           (-30.0 30.0)
           (-30.0 30.0)
  end
  begin
     id 13 
     name thorax
     direction 0.0242908 0.99956 0.0170184   
     length 1.99573   
     axis 0 0 0   XYZ
    dof rx ry rz
    limits (-20.0 45.0)
           (-30.0 30.0)
           (-30.0 30.0)
  end
  begin
     id 14 
     name lowerneck
     direction 0.0654488 0.985533 0.156338   
     length 1.4285   
     axis 0 0 0   XYZ
    dof rx ry rz
    limits (-20.0 45.0)
           (-30.0 30.0)
           (-30.0 30.0)
  end
  begin
     id 15 
     name upperneck
     direction -0.02953 0.998556 -0.0448842   
     length 1.44709   
     axis 0 0 0   XYZ
    dof rx ry rz
    limits (-20.0 45.0)
           (-30.0 30.0)
           (-30.0 30.0)
  end
  begin
     id 16
     name head
     direction -0.0155588 0.999386 -0.0314063  
     length 1.44689  
     axis 0 0 0   XYZ
    dof rx ry rz
    limits (-20.0 45.0)
           (-30.0 30.0)
           (-30.0 30.0)
  end
  begin
     id 17 
     name lclavicle
     direction 0.968229 0.236071 -0.0824755  
     length 3.60593  
     axis 0 0 0   XYZ
    dof ry rz
    limits (-20.0 10.0)
           (0.0 20.0)
  end
  begin
     id 18 
     name lhumerus
     direction 1 -4.48968e-011 7.8138e-029   
     length 5.06035   
     axis 180 -30 -90   XYZ
    dof rx ry rz
    limits (-60.0 90.0)
           (-90.0 90.0)
           (-90.0 90.0)
  end
  begin
     id 19
     name lradius
     direction 1 -4.48967e-011 9.02887e-028   
     length 3.1478   
     axis 180 -30 -90   XYZ
    dof rx
    limits (-10.0 170.0)
  end
  begin
     id 20
     name lwrist
     direction 1 -4.48961e-011 7.20928e-028   
     length 1.5739   
     axis -5.52449e-016 90 90   XYZ
    dof ry
    limits (-180.0 0.0)
 end
  begin
     id 21 
     name lhand
     direction 1 -4.48972e-011 1.44186e-027   
     length 0.606747   
     axis -9.20027e-016 90 90   XYZ
    dof rx rz
    limits (-90.0 90.0)
           (-45.0 45.0)
  end
  begin
     id 22 
     name lfingers
     direction 1 -4.48943e-011 2.88371e-027   
     length 0.489175   
     axis -1.84005e-015 90 90   XYZ
    dof rx
    limits (0.0 90.0)
  end
  begin
     id 23
     name lthumb
     direction 0.707107 -6.34917e-011 0.707107   
     length 0.70236   
     axis -90 45 2.85299e-015   XYZ
    dof rx rz
    limits (-45.0 45.0)
           (-45.0 45.0)
  end
  begin
     id 24 
     name rclavicle
     direction -0.978165 0.207816 0.0022268   
     length 3.35425  
     axis 0 0 0   XYZ 
    dof ry rz
    limits (-10.0 20.0)
           (-20.0 0.0)
  end
  begin
     id 25 
     name rhumerus
     direction -1 -4.48964e-011 -4.02159e-027  
     length 5.12273   
     axis 180 30 90   XYZ
    dof rx ry rz
    limits (-90.0 60.0)
           (-90.0 90.0)
           (-90.0 90.0)
  end
  begin
     id 26 
     name rradius
     direction -1 -4.48966e-011 1.62746e-027   
     length 3.422   
     axis 180 30 90   XYZ
    dof rx
    limits (-10.0 170.0)
  end
  begin
     id 27 
     name rwrist
     direction -1 -4.4896e-011 7.20928e-028   
     length 1.711   
     axis -5.52449e-016 -90 -90   XYZ
    dof ry
    limits (-180.0 0.0)
  end
  begin
     id 28
     name rhand
     direction -1 -4.48979e-011 1.44186e-027   
     length 0.704599   
     axis -9.20027e-016 -90 -90   XYZ
    dof rx rz
    limits (-90.0 90.0)
           (-45.0 45.0)
  end
  begin
     id 29
     name rfingers
     direction -1 -4.48962e-011 2.88371e-027   
     length 0.568066   
     axis -1.84005e-015 -90 -90   XYZ
    dof rx
    limits (0.0 90.0)
  end
  begin
     id 30
     name rthumb
     direction -0.707107 -6.34949e-011 0.707107   
     length 0.815633   
     axis -90 -45 -2.85299e-015   XYZ
    dof rx rz
    limits (-45.0 45.0)
           (-45.0 45.0)
  end
:hierarchy
  begin
    root lhipjoint rhipjoint lowerback
    lhipjoint lfemur
    lfemur ltibia
    ltibia lfoot
    lfoot ltoes
    rhipjoint rfemur
    rfemur rtibia
    rtibia rfoot
    rfoot rtoes
    lowerback upperback
    upperback thorax
    thorax lowerneck lclavicle rclavicle
    lowerneck upperneck
    upperneck head
    lclavicle lhumerus
    lhumerus lradius
    lradius lwrist
    lwrist lhand lthumb
    lhand lfingers
    rclavicle rhumerus
    rhumerus rradius
    rradius rwrist
    rwrist rhand rthumb
    rhand rfingers
  end

#!OML:ASF E:\id_vita\Project 1\Capture day 1\Session 1\Male1.ASF
:FULLY-SPECIFIED
:DEGREES
454
root -19.9485 15.8202 -1.05355 538.17 -37.94 -531.973
lowerback -0.871955 -2.27384 -1.64178
upperback 0.373278 -3.01217 -0.487423
thorax 0.928727 -1.51558 0.367765
lowerneck -1.51792 -2.49398 0.299922
upperneck -15.3104 -4.13837 0.810605
head -4.80102 -2.43908 0.402847
rclavicle 2.5842e-015 2.70347e-014
rhumerus -33.4823 -2.06671 -88.2712
rradius 35.9143
rwrist 1.84995
rhand -19.7042 35.975
rfingers 7.12502
rthumb 6.62535 6.09865
lclavicle 2.5842e-015 2.70347e-014
lhumerus -21.9882 16.9194 75.1835
lradius 21.924
lwrist -4.69214
lhand -10.4734 46.8301
lfingers 7.12502
lthumb 15.5278 76.2267
rfemur 4.54684 14.2556 18.8983
rtibia 26.0036
rfoot -14.3708 10.0357
rtoes 17.1629
lfemur -23.91 5.62278 -10.1633
ltibia 41.4733
lfoot -18.4559 -5.60322
ltoes 36.3734
455
root -20.0223 15.8196 -1.05813 537.82 -37.3797 -532.119
lowerback -0.586959 -2.161 -1.75668
upperback 0.528 -2.86545 -0.499208
thorax 0.929816 -1.44411 0.430511
lowerneck -1.63393 -2.50156 0.191274
upperneck -15.3551 -4.13808 1.03087
head -4.78675 -2.44917 0.494868
rclavicle -3.94091e-014 -2.54444e-014
rhumerus -33.41 -1.8109 -88.3142
rradius 35.6717
rwrist 1.69789
rhand -19.7344 35.8535
rfingers 7.12502
rthumb 6.59623 5.9762
lclavicle -3.94091e-014 -2.54444e-014
lhumerus -21.8804 17.0404 75.1855
lradius 21.8805
lwrist -4.92335
lhand -10.5025 46.7735
lfingers 7.12502
lthumb 15.4997 76.1722
rfemur 4.654 14.167 18.6631
rtibia 26.9102
rfoot -14.1737 10.4387
rtoes 18.0375
lfemur -22.9559 5.63586 -10.4068
ltibia 41.356
lfoot -18.9112 -5.24362
ltoes 36.2512
456
root -20.1008 15.8179 -1.04988 538.982 -36.9184 -533.645
lowerback -0.883683 -2.12212 -2.84073
upperback 0.448303 -2.79885 -0.818513
thorax 1.04933 -1.42051 0.698542
lowerneck -1.64602 -2.4117 0.189903
upperneck -15.3609 -4.01254 1.08047
head -4.78574 -2.39106 0.507372
rclavicle 3.38928e-014 5.40694e-014
rhumerus -33.4124 -1.73041 -88.3325
rradius 35.4954
rwrist 1.87869
rhand -19.6515 35.9771
rfingers 7.12502
rthumb 6.67625 6.10231
lclavicle 3.38928e-014 5.40694e-014
lhumerus -21.8547 17.235 75.1299
lradius 21.867
lwrist -5.06725
lhand -10.6979 46.9954
lfingers 7.12502
lthumb 15.3115 76.4086
rfemur 3.86375 13.793 16.9008
rtibia 28.0974
rfoot -14.2314 10.9138
rtoes 17.8014
lfemur -22.7173 5.68968 -12.0422
ltibia 41.1641
lfoot -19.3197 -4.46998
ltoes 35.2154
457
root -20.1496 15.8136 -1.03857 539.033 -36.6853 -533.579
lowerback -1.03797 -2.0886 -2.70233
upperback 0.619175 -2.74722 -0.900182
thorax 1.29872 -1.39794 0.52852
lowerneck -1.78633 -2.36261 0.219881
upperneck -15.56 -3.9613 1.20665
head -4.83068 -2.38658 0.544837
rclavicle -2.93207e-015 1.27222e-014
rhumerus -33.0208 -2.27046 -88.4177
rradius 35.3249
rwrist 2.30727
rhand -19.604 36.1126
rfingers 7.12502
rthumb 6.72214 6.23927
lclavicle -2.93207e-015 1.27222e-014
lhumerus -21.2747 16.997 75.1546
lradius 21.7868
lwrist -4.87604
lhand -10.9444 46.8598
lfingers 7.12502
lthumb 15.0741 76.291
rfemur 3.19522 13.5782 16.8188
rtibia 29.2935
rfoot -14.0315 10.7598
rtoes 17.6427
lfemur -22.6465 5.90535 -12.155
ltibia 41.0737
lfoot -19.3539 -4.34038
ltoes 34.5369
458
root -20.1867 15.8167 -1.02305 538.953 -36.4117 -533.415
lowerback -0.764344 -2.05575 -2.6387
upperback 0.609494 -2.71431 -0.895297
thorax 1.13164 -1.37928 0.510227
lowerneck -1.8346 -2.40073 0.187593
upperneck -15.7478 -4.03179 1.28201
head -4.88906 -2.43382 0.582068
rclavicle 2.93704e-014 -4.6118e-014
rhumerus -32.8608 -2.28985 -88.5595
rradius 35.1684
rwrist 2.29505
rhand -19.6313 36.1575
rfingers 7.12502
rthumb 6.69573 6.28341
lclavicle 2.93704e-014 -4.6118e-014
lhumerus -21.044 16.9258 75.0698
lradius 21.7364
lwrist -4.914
lhand -10.6413 46.5306
lfingers 7.12502
lthumb 15.366 75.9396
rfemur 2.50314 13.5511 16.897
rtibia 30.5058
rfoot -13.4048 10.6906
rtoes 19.6977
lfemur -22.5664 5.97072 -12.103
ltibia 40.9974
lfoot -19.3383 -4.25127
ltoes 34.8193
459
root -20.2296 15.825 -1.01235 539.605 -36.6544 -534.025
lowerback -0.763064 -2.25406 -3.26356
upperback 0.475496 -2.97818 -1.01627
thorax 1.02677 -1.51472 0.732016
lowerneck -1.85939 -2.28486 0.365976
upperneck -15.7659 -3.88075 1.23698
head -4.89662 -2.3698 0.530323
rclavicle 1.35174e-014 7.95139e-014
rhumerus -32.8364 -2.15878 -88.7287
rradius 34.9671
rwrist 2.30381
rhand -19.7042 36.2191
rfingers 7.12502
rthumb 6.62541 6.34271
lclavicle 1.35174e-014 7.95139e-014
lhumerus -21.0263 17.0952 74.9012
lradius 21.6938
lwrist -5.18238
lhand -9.92316 46.484
lfingers 7.12502
lthumb 16.0576 75.8387
rfemur 1.6765 12.9988 16.2052
rtibia 31.7253
rfoot -12.886 10.6738
rtoes 21.2575
lfemur -22.8369 5.65675 -12.8046
ltibia 40.9605
lfoot -19.3425 -4.40493
ltoes 36.4609
460
root -20.2984 15.8209 -1.01743 539.295 -35.9814 -534.275
lowerback -0.553795 -2.1052 -3.38863
upperback 0.676518 -2.78527 -1.12323
thorax 1.10917 -1.42361 0.699719
lowerneck -1.96734 -2.25454 0.489379
upperneck -15.8163 -3.86005 1.17985
head -4.89835 -2.37008 0.48781
rclavicle 2.01766e-014 9.54166e-015
rhumerus -32.7511 -2.32165 -88.8289
rradius 34.7629
rwrist 2.52571
rhand -19.7518 36.4217
rfingers 7.12502
rthumb 6.57946 6.54386
lclavicle 2.01766e-014 9.54166e-015
lhumerus -20.8367 17.0643 74.8335
lradius 21.5986
lwrist -5.12204
lhand -11.3568 46.7298
lfingers 7.12502
lthumb 14.6768 76.1903
rfemur 1.58899 13.0036 15.8685
rtibia 32.9025
rfoot -12.7038 10.8929
rtoes 20.8628
lfemur -21.9257 5.80065 -13.1358
ltibia 40.88
lfoot -19.6299 -4.15029
ltoes 37.2481
